<?xml version="1.0" standalone="no"?>
<!DOCTYPE svg PUBLIC "-//W3C//DTD SVG 20010904//EN"
 "http://www.w3.org/TR/2001/REC-SVG-20010904/DTD/svg10.dtd">
<svg version="1.0" xmlns="http://www.w3.org/2000/svg"
 width="444.000000pt" height="444.000000pt" viewBox="0 0 444.000000 444.000000"
 preserveAspectRatio="xMidYMid meet">
<metadata>
Created by potrace 1.11, written by Peter Selinger 2001-2013
</metadata>
<g transform="translate(0.000000,444.000000) scale(0.100000,-0.100000)"
fill="#000000" stroke="none">
<path d="M2127 4418 c-8 -4 -12 -45 -11 -132 0 -106 -2 -127 -15 -130 -9 -3
-59 -10 -111 -17 -52 -6 -102 -13 -110 -14 -78 -13 -101 -19 -106 -26 -3 -5
-9 -7 -14 -4 -13 8 -227 -64 -330 -111 -107 -49 -260 -134 -260 -145 0 -5 -5
-9 -11 -9 -11 0 -77 -44 -116 -76 -12 -11 -37 -30 -54 -44 -78 -60 -212 -198
-204 -210 5 -8 4 -11 -3 -6 -13 8 -30 -9 -85 -82 -80 -105 -97 -133 -91 -145
4 -7 3 -9 -1 -4 -19 17 -187 -303 -210 -398 -2 -11 -13 -45 -24 -75 -11 -31
-22 -67 -24 -80 -3 -14 -12 -52 -20 -85 -9 -33 -18 -82 -21 -110 -3 -27 -8
-61 -11 -75 -2 -13 -6 -39 -7 -57 l-2 -33 -101 -1 c-55 -1 -117 0 -138 1 -36
1 -37 0 -38 -32 0 -18 -1 -66 -2 -106 l-2 -72 140 0 140 0 1 -27 c3 -96 23
-244 48 -353 3 -14 9 -38 12 -55 4 -16 10 -36 14 -45 5 -8 14 -35 21 -60 7
-25 20 -61 28 -80 16 -37 18 -43 20 -61 0 -5 6 -7 13 -3 7 4 8 3 4 -4 -7 -12
81 -204 96 -210 4 -2 8 -8 8 -13 0 -19 87 -139 95 -131 5 4 5 1 1 -5 -4 -8 4
-24 21 -40 15 -16 26 -30 24 -31 -10 -11 233 -266 295 -309 17 -13 34 -19 38
-15 4 4 6 1 4 -7 -4 -17 192 -151 300 -204 42 -21 90 -45 105 -54 80 -43 362
-128 456 -138 25 -3 57 -7 71 -10 14 -3 54 -8 90 -12 36 -3 67 -7 69 -9 2 -2
4 -58 5 -126 l1 -122 100 0 100 -1 3 127 3 128 44 0 c25 0 48 1 53 2 4 1 52
10 107 19 286 49 493 128 752 288 40 25 69 50 66 55 -4 6 -3 8 2 4 5 -5 24 4
44 19 151 113 383 357 423 445 7 16 16 28 19 28 10 0 83 126 140 240 30 62 84
196 93 235 2 6 6 17 9 25 11 26 46 163 51 202 3 21 10 56 15 77 6 27 5 43 -3
52 -8 9 -8 10 2 5 8 -5 12 2 13 23 1 17 3 40 4 51 1 11 3 38 4 60 l1 40 134 0
134 0 -2 103 -1 102 -127 1 c-70 0 -131 3 -134 7 -8 7 -11 30 -19 107 -2 25
-4 45 -5 45 -1 0 -3 9 -4 20 -12 89 -43 209 -83 325 -31 93 -103 254 -114 258
-5 2 -9 12 -9 22 0 9 -7 23 -15 30 -8 7 -15 17 -15 22 0 12 -100 162 -111 166
-5 2 -9 8 -9 13 0 5 -6 17 -14 26 -8 10 -31 38 -52 63 -60 74 -114 130 -124
130 -6 0 -10 6 -11 13 -1 23 -278 246 -306 247 -7 0 -13 3 -13 8 0 15 -189
114 -202 106 -6 -4 -8 -3 -5 3 14 22 -276 125 -448 158 -22 5 -47 10 -55 12
-8 2 -37 6 -65 9 -27 3 -66 7 -85 10 -19 2 -47 5 -62 5 l-26 0 0 122 c-1 67
-1 129 -1 137 -1 12 -18 15 -92 15 -50 0 -96 -3 -102 -7z m-13 -670 c-1 -106
-2 -196 -3 -200 0 -3 -25 -9 -53 -14 -80 -11 -91 -13 -113 -17 -308 -69 -555
-223 -764 -474 -26 -31 -40 -56 -35 -64 4 -7 3 -10 -3 -6 -11 7 -66 -69 -66
-90 0 -7 -4 -13 -9 -13 -11 0 -89 -166 -103 -220 -1 -3 -4 -12 -8 -20 -9 -24
-35 -122 -42 -160 -3 -19 -8 -52 -12 -73 -3 -21 -10 -40 -15 -43 -12 -8 -378
-7 -386 1 -19 19 44 339 87 440 25 59 31 77 26 85 -3 4 1 10 8 13 6 2 18 21
25 42 25 68 146 270 203 339 5 6 19 22 30 36 11 14 35 41 52 60 18 19 31 38
30 42 -2 5 1 8 7 8 5 0 27 17 48 38 85 82 195 170 259 207 18 10 29 23 26 28
-4 6 -1 7 6 3 7 -5 20 -1 29 8 57 51 379 179 512 203 14 2 44 8 67 14 23 5 73
12 110 15 37 3 70 8 72 10 14 13 17 -26 15 -198z m326 187 c30 -3 62 -7 70 -9
8 -1 33 -6 55 -11 125 -24 311 -85 393 -128 18 -10 38 -15 44 -11 6 4 8 3 5
-3 -4 -6 14 -20 41 -32 51 -24 104 -53 112 -61 3 -3 37 -28 75 -55 66 -46 199
-159 237 -201 81 -89 108 -120 138 -163 19 -28 38 -50 43 -51 4 0 7 -5 7 -10
0 -6 15 -32 33 -58 46 -65 150 -281 181 -375 37 -113 71 -266 81 -371 l5 -44
-75 -4 c-119 -5 -330 6 -330 17 -1 10 -17 104 -21 118 -1 4 -2 16 -3 28 0 11
-5 18 -9 15 -4 -2 -7 8 -6 22 0 15 -2 34 -6 42 -4 8 -13 33 -20 55 -20 68
-108 241 -163 322 -91 135 -311 341 -416 390 -20 9 -38 20 -41 23 -10 12 -135
68 -210 93 -104 37 -235 65 -302 66 l-38 1 1 49 c1 27 -2 54 -5 60 -4 6 -2 11
4 11 6 0 9 4 6 9 -6 10 -8 82 -3 161 2 30 0 67 -4 82 -8 29 5 37 46 32 11 -1
45 -5 75 -9z m-40 -609 c25 -3 72 -12 105 -21 33 -9 70 -18 83 -18 12 -1 22
-5 22 -9 0 -4 10 -10 23 -14 35 -11 130 -56 158 -75 14 -10 32 -19 40 -21 8
-2 20 -11 27 -20 7 -10 17 -18 23 -18 5 0 17 -8 27 -17 10 -10 33 -29 51 -43
108 -82 232 -249 300 -404 37 -84 98 -302 88 -312 -2 -3 -36 -5 -76 -5 -44 -1
-69 -5 -65 -11 3 -5 -3 -4 -14 3 -12 7 -24 10 -27 7 -9 -9 -12 -159 -3 -164 3
-2 4 -13 1 -24 -5 -19 0 -20 96 -20 76 0 99 -3 96 -12 -2 -7 -6 -35 -9 -63
-11 -111 -49 -234 -108 -355 -29 -58 -51 -109 -49 -115 1 -5 -1 -7 -5 -3 -4 5
-22 -15 -41 -42 -46 -69 -125 -152 -210 -221 -39 -33 -74 -59 -77 -59 -3 0
-29 -15 -58 -33 -114 -70 -276 -128 -398 -143 -19 -3 -43 -6 -52 -8 -15 -3
-18 7 -20 83 l-3 86 -90 0 c-49 1 -95 -1 -101 -3 -7 -2 -12 -29 -12 -70 0 -96
-1 -104 -9 -99 -5 3 -30 8 -58 11 -27 3 -65 10 -83 15 -18 5 -36 10 -40 10
-22 2 -117 39 -190 72 -73 34 -162 89 -225 139 -41 32 -167 160 -167 169 0 5
-4 11 -8 13 -12 4 -83 112 -118 178 -37 68 -81 183 -90 232 -3 21 -9 36 -13
34 -3 -2 -7 21 -9 52 -1 31 -6 60 -10 64 -5 5 -7 22 -4 38 l4 30 94 0 c91 0
94 1 94 23 0 13 -6 29 -12 36 -7 8 -8 11 -2 8 14 -8 14 91 0 112 -6 10 -6 12
2 7 7 -4 12 -1 12 8 0 13 -13 16 -72 15 -118 -1 -111 -5 -105 44 13 124 95
333 175 444 12 17 22 33 22 36 0 9 70 87 135 151 33 32 59 62 58 66 -1 4 3 7
10 7 7 0 44 22 82 48 139 95 347 175 465 178 l54 2 1 -60 c0 -33 5 -63 10 -67
6 -5 5 -8 -3 -8 -7 0 -10 -4 -7 -10 3 -5 51 -9 105 -8 112 1 102 -8 101 88 0
57 7 80 22 75 7 -3 32 -7 57 -9z m-2197 -1001 c-3 -9 -8 -14 -10 -11 -3 3 -2
9 2 15 9 16 15 13 8 -4z m400 0 c-3 -9 -8 -14 -10 -11 -3 3 -2 9 2 15 9 16 15
13 8 -4z m3040 0 c-3 -9 -8 -14 -10 -11 -3 3 -2 9 2 15 9 16 15 13 8 -4z
m-2753 -197 c0 -11 16 -110 34 -223 7 -37 29 -110 38 -120 4 -5 8 -16 8 -25 0
-9 8 -34 19 -56 10 -21 28 -59 40 -84 45 -96 128 -223 141 -215 5 3 7 -1 4 -9
-3 -9 3 -20 15 -28 12 -7 21 -17 21 -22 0 -19 52 -64 69 -59 11 3 12 2 4 -4
-9 -7 -2 -18 26 -44 84 -75 134 -114 142 -112 5 2 9 -1 9 -6 0 -10 164 -111
180 -111 6 0 21 -6 33 -14 25 -17 175 -73 215 -81 15 -3 73 -13 129 -23 87
-14 102 -20 105 -37 3 -17 2 -262 -1 -358 -1 -16 -4 -26 -8 -24 -5 3 -40 8
-79 11 -39 4 -82 9 -95 11 -13 3 -40 8 -59 11 -19 3 -66 15 -105 26 -38 11
-74 21 -80 23 -5 1 -23 8 -40 14 -16 7 -40 15 -52 17 -30 6 -238 110 -291 146
-23 16 -47 26 -52 23 -6 -4 -9 -2 -8 2 2 5 -36 39 -83 75 -151 115 -294 269
-395 425 -60 91 -148 261 -159 306 -4 15 -11 30 -16 33 -5 3 -9 16 -9 29 0 13
-4 26 -9 29 -4 3 -12 20 -16 38 -4 18 -9 38 -10 43 -40 151 -55 234 -60 338
l-3 67 199 0 c152 0 199 -3 199 -12z m3075 0 c-2 -7 -6 -49 -10 -93 -7 -97
-45 -273 -80 -378 -14 -42 -23 -82 -19 -89 4 -6 3 -8 -3 -5 -6 4 -18 -11 -28
-36 -23 -57 -68 -151 -76 -157 -3 -3 -14 -20 -24 -39 -64 -125 -242 -335 -394
-465 -50 -42 -239 -168 -291 -193 -157 -76 -285 -127 -351 -138 -18 -3 -37 -9
-42 -12 -6 -3 -20 -8 -31 -9 -104 -16 -177 -30 -173 -34 3 -3 -21 -5 -54 -5
l-59 0 0 197 c0 108 3 199 8 201 4 3 30 7 59 11 28 3 57 8 65 10 7 3 29 7 49
10 46 7 205 60 278 93 95 43 244 139 307 198 6 5 32 29 58 53 26 24 44 48 40
54 -4 6 -3 8 3 5 11 -7 90 78 111 120 7 12 18 27 25 35 7 7 28 40 46 73 18 33
36 65 40 70 9 11 76 178 86 212 30 106 51 223 54 301 l1 22 205 0 c159 0 203
-3 200 -12z"/>
<path d="M2187 2914 c-1 -1 -26 -5 -56 -8 -128 -15 -298 -96 -386 -185 -64
-64 -85 -88 -85 -100 0 -6 -5 -11 -11 -11 -6 0 -8 -7 -5 -16 3 -8 2 -12 -4 -9
-5 3 -25 -26 -44 -65 -19 -38 -33 -70 -31 -70 3 0 -2 -17 -10 -37 -22 -56 -32
-143 -29 -231 4 -86 31 -212 46 -212 5 0 7 -4 3 -9 -8 -13 59 -137 100 -186
61 -73 85 -98 85 -90 0 4 8 -1 18 -12 47 -53 164 -114 274 -143 50 -13 70 -15
79 -6 9 8 10 8 5 -1 -5 -9 4 -13 31 -14 85 -3 158 4 165 14 6 9 8 9 8 0 0 -8
8 -9 28 -4 15 5 52 16 83 25 148 44 312 181 391 326 63 116 83 202 82 350 0
123 -12 181 -57 280 -80 175 -250 326 -428 381 -52 16 -243 41 -252 33z m-266
-161 c13 -16 12 -17 -3 -4 -17 13 -22 21 -14 21 2 0 10 -8 17 -17z m432 -64
c88 -23 195 -88 240 -146 10 -13 24 -20 30 -16 7 3 9 3 6 -1 -4 -4 10 -40 30
-79 57 -108 69 -168 60 -302 -2 -41 -35 -132 -66 -185 -40 -68 -84 -116 -143
-156 -66 -44 -125 -69 -190 -82 -75 -14 -197 -6 -255 17 -171 69 -290 207
-325 376 -22 105 1 246 54 335 50 83 61 100 68 100 4 0 20 12 35 28 39 39 104
79 152 94 23 7 41 16 41 20 0 4 6 5 13 3 6 -2 28 -1 47 4 44 10 147 5 203 -10z"/>
</g>
</svg>
